<svg width="512" height="384" viewBox="0 0 512 384" fill="none" xmlns="http://www.w3.org/2000/svg">
<rect width="512" height="384" fill="white"/>
<rect x="64" y="96" width="384" height="128" fill="#F1F5F8"/>
<path d="M64 224H448" stroke="black" stroke-width="2"/>
<path d="M96 192C100 186.667 104 186.667 108 192C112 197.333 116 197.333 120 192C124 186.667 128 186.667 132 192C136 197.333 140 197.333 144 192C148 186.667 152 186.667 156 192C160 197.333 164 197.333 168 192C172 186.667 176 186.667 180 192C184 197.333 188 197.333 192 192" stroke="#606F7B" stroke-width="2" stroke-linecap="round"/>
<path d="M406 86L416 76L426 86" stroke="black" stroke-width="4" stroke-linecap="round" stroke-linejoin="round"/>
<path d="M426 235L416 245L406 235" stroke="black" stroke-width="4" stroke-linecap="round" stroke-linejoin="round"/>
<path d="M426 267L416 277L406 267" stroke="black" stroke-width="4" stroke-linecap="round" stroke-linejoin="round"/>
<path d="M64 96H448" stroke="black" stroke-width="2"/>
<path d="M64 288H448" stroke="black" stroke-width="2"/>
<path d="M64 256H448" stroke="black" stroke-width="2"/>
<path d="M426 299L416 309L406 299" stroke="black" stroke-width="4" stroke-linecap="round" stroke-linejoin="round"/>
<path d="M96 81C100.267 75.6667 104.533 75.6667 108.8 81C113.067 86.3333 117.333 86.3333 121.6 81C125.867 75.6667 130.133 75.6667 134.4 81C138.667 86.3333 142.933 86.3333 147.2 81C151.467 75.6667 155.733 75.6667 160 81C164.267 86.3333 168.533 86.3333 172.8 81C177.067 75.6667 181.333 75.6667 185.6 81C189.867 86.3333 194.133 86.3333 198.4 81C202.667 75.6667 206.933 75.6667 211.2 81C215.467 86.3333 219.733 86.3333 224 81" stroke="#606F7B" stroke-width="4" stroke-linecap="round"/>
<path d="M96 241C100.267 235.667 104.533 235.667 108.8 241C113.067 246.333 117.333 246.333 121.6 241C125.867 235.667 130.133 235.667 134.4 241C138.667 246.333 142.933 246.333 147.2 241C151.467 235.667 155.733 235.667 160 241C164.267 246.333 168.533 246.333 172.8 241C177.067 235.667 181.333 235.667 185.6 241C189.867 246.333 194.133 246.333 198.4 241C202.667 235.667 206.933 235.667 211.2 241C215.467 246.333 219.733 246.333 224 241" stroke="#606F7B" stroke-width="4" stroke-linecap="round"/>
<path d="M96 272C100.267 266.667 104.533 266.667 108.8 272C113.067 277.333 117.333 277.333 121.6 272C125.867 266.667 130.133 266.667 134.4 272C138.667 277.333 142.933 277.333 147.2 272C151.467 266.667 155.733 266.667 160 272C164.267 277.333 168.533 277.333 172.8 272C177.067 266.667 181.333 266.667 185.6 272C189.867 277.333 194.133 277.333 198.4 272C202.667 266.667 206.933 266.667 211.2 272C215.467 277.333 219.733 277.333 224 272" stroke="#606F7B" stroke-width="4" stroke-linecap="round"/>
<path d="M96 304C100.267 298.667 104.533 298.667 108.8 304C113.067 309.333 117.333 309.333 121.6 304C125.867 298.667 130.133 298.667 134.4 304C138.667 309.333 142.933 309.333 147.2 304C151.467 298.667 155.733 298.667 160 304C164.267 309.333 168.533 309.333 172.8 304C177.067 298.667 181.333 298.667 185.6 304C189.867 309.333 194.133 309.333 198.4 304C202.667 298.667 206.933 298.667 211.2 304C215.467 309.333 219.733 309.333 224 304" stroke="#606F7B" stroke-width="4" stroke-linecap="round"/>
<path d="M96 128C100 122.667 104 122.667 108 128C112 133.333 116 133.333 120 128C124 122.667 128 122.667 132 128C136 133.333 140 133.333 144 128C148 122.667 152 122.667 156 128C160 133.333 164 133.333 168 128C172 122.667 176 122.667 180 128C184 133.333 188 133.333 192 128" stroke="#606F7B" stroke-width="2" stroke-linecap="round"/>
<path d="M96 160C100 154.667 104 154.667 108 160C112 165.333 116 165.333 120 160C124 154.667 128 154.667 132 160C136 165.333 140 165.333 144 160C148 154.667 152 154.667 156 160C160 165.333 164 165.333 168 160C172 154.667 176 154.667 180 160C184 165.333 188 165.333 192 160" stroke="#606F7B" stroke-width="2" stroke-linecap="round"/>
<rect x="65" y="65" width="382" height="254" rx="15" stroke="black" stroke-width="2"/>
</svg>
