<svg width="512" height="384" viewBox="0 0 512 384" fill="none" xmlns="http://www.w3.org/2000/svg">
<rect width="512" height="384" fill="white"/>
<path d="M283 175L299.971 191.971L283 208.941" stroke="black" stroke-width="2" stroke-linecap="round"/>
<path d="M328 192C336 181.333 344 181.333 352 192C360 202.667 368 202.667 376 192C384 181.333 392 181.333 400 192C408 202.667 416 202.667 424 192C432 181.333 440 181.333 448 192" stroke="#606F7B" stroke-width="2" stroke-linecap="round"/>
<path d="M64 192C72 181.333 80 181.333 88 192C96 202.667 104 202.667 112 192C120 181.333 128 181.333 136 192C144 202.667 152 202.667 160 192C168 181.333 176 181.333 184 192C192 202.667 200 202.667 208 192C216 181.333 224 181.333 232 192C240 202.667 248 202.667 256 192" stroke="#606F7B" stroke-width="2" stroke-linecap="round"/>
</svg>
