<svg width="512" height="384" viewBox="0 0 512 384" fill="none" xmlns="http://www.w3.org/2000/svg">
<rect width="512" height="384" fill="white"/>
<rect x="64" y="64" width="384" height="256" fill="white" stroke="black" stroke-width="2"/>
<path d="M174 96C182.067 84 190.133 84 198.2 96C206.267 108 214.333 108 222.4 96C230.467 84 238.533 84 246.6 96C254.667 108 262.733 108 270.8 96C278.867 84 286.933 84 295 96C303.067 108 311.133 108 319.2 96C327.267 84 335.333 84 343.4 96C351.467 108 359.533 108 367.6 96C375.667 84 383.733 84 391.8 96C399.867 108 407.933 108 416 96" stroke="#DAE1E7" stroke-width="2" stroke-linecap="round"/>
<path d="M174 288C182.067 276 190.133 276 198.2 288C206.267 300 214.333 300 222.4 288C230.467 276 238.533 276 246.6 288C254.667 300 262.733 300 270.8 288C278.867 276 286.933 276 295 288C303.067 300 311.133 300 319.2 288C327.267 276 335.333 276 343.4 288C351.467 300 359.533 300 367.6 288C375.667 276 383.733 276 391.8 288C399.867 300 407.933 300 416 288" stroke="#DAE1E7" stroke-width="2" stroke-linecap="round"/>
<path d="M127 224C135 213.333 143 213.333 151 224C159 234.667 167 234.667 175 224C183 213.333 191 213.333 199 224C207 234.667 215 234.667 223 224C231 213.333 239 213.333 247 224C255 234.667 263 234.667 271 224" stroke="#DAE1E7" stroke-width="2" stroke-linecap="round"/>
<path d="M127 160C135 149.333 143 149.333 151 160C159 170.667 167 170.667 175 160C183 149.333 191 149.333 199 160C207 170.667 215 170.667 223 160C231 149.333 239 149.333 247 160C255 170.667 263 170.667 271 160" stroke="#DAE1E7" stroke-width="2" stroke-linecap="round"/>
<rect x="225" y="65" width="5" height="254" fill="#C4C4C4" fill-opacity="0.68"/>
<rect x="64" y="64" width="160" height="256" fill="#F1F5F8" stroke="black" stroke-width="2"/>
<path d="M81 160C89 149.333 97 149.333 105 160C113 170.667 121 170.667 129 160C137 149.333 145 149.333 153 160C161 170.667 169 170.667 177 160C185 149.333 193 149.333 201 160" stroke="#606F7B" stroke-width="2" stroke-linecap="round"/>
<path d="M81 224C89 213.333 97 213.333 105 224C113 234.667 121 234.667 129 224C137 213.333 145 213.333 153 224C161 234.667 169 234.667 177 224C185 213.333 193 213.333 201 224" stroke="#606F7B" stroke-width="2" stroke-linecap="round"/>
<path d="M81 288C89 277.333 97 277.333 105 288C113 298.667 121 298.667 129 288C137 277.333 145 277.333 153 288C161 298.667 169 298.667 177 288C185 277.333 193 277.333 201 288" stroke="#606F7B" stroke-width="2" stroke-linecap="round"/>
<rect x="288" y="128" width="128" height="128" fill="#DAE1E7"/>
<rect x="304" y="144" width="96" height="96" fill="white"/>
<path d="M372 204L396 240H348L372 204Z" fill="#DAE1E7"/>
<path d="M372 204L396 240H348L372 204Z" fill="#DAE1E7"/>
<path d="M340 192L372 240H308L340 192Z" fill="#DAE1E7"/>
<path d="M340 192L372 240H308L340 192Z" fill="#DAE1E7"/>
<circle cx="372" cy="176" r="16" fill="#DAE1E7"/>
<path d="M201 84L177 108" stroke="black" stroke-width="2" stroke-linecap="round"/>
<path d="M177 84L201 108" stroke="black" stroke-width="2" stroke-linecap="round"/>
<path d="M81 96C89 85.3333 97 85.3333 105 96C113 106.667 121 106.667 129 96C137 85.3333 145 85.3333 153 96" stroke="#606F7B" stroke-width="2" stroke-linecap="round"/>
</svg>
