<svg width="512" height="384" viewBox="0 0 512 384" fill="none" xmlns="http://www.w3.org/2000/svg">
<rect width="512" height="384" fill="white"/>
<path d="M160 128C168 117.333 176 117.333 184 128C192 138.667 200 138.667 208 128C216 117.333 224 117.333 232 128C240 138.667 248 138.667 256 128C264 117.333 272 117.333 280 128C288 138.667 296 138.667 304 128" stroke="#606F7B" stroke-width="6" stroke-linecap="round"/>
<path d="M160 191C168 180.333 176 180.333 184 191C192 201.667 200 201.667 208 191C216 180.333 224 180.333 232 191C240 201.667 248 201.667 256 191C264 180.333 272 180.333 280 191C288 201.667 296 201.667 304 191C312 180.333 320 180.333 328 191C336 201.667 344 201.667 352 191" stroke="#DAE1E7" stroke-width="2" stroke-linecap="round"/>
<path d="M160 256C168 245.333 176 245.333 184 256C192 266.667 200 266.667 208 256C216 245.333 224 245.333 232 256C240 266.667 248 266.667 256 256C264 245.333 272 245.333 280 256C288 266.667 296 266.667 304 256C312 245.333 320 245.333 328 256C336 266.667 344 266.667 352 256" stroke="#DAE1E7" stroke-width="2" stroke-linecap="round"/>
</svg>
