<svg width="512" height="384" viewBox="0 0 512 384" fill="none" xmlns="http://www.w3.org/2000/svg">
<rect width="512" height="384" fill="white"/>
<rect x="65" y="65" width="382" height="254" fill="white" stroke="black" stroke-width="2"/>
<rect x="65" y="65" width="382" height="62" fill="#DAE1E7" stroke="black" stroke-width="2"/>
<path d="M336 96C328.001 106.667 320.001 106.668 312 96.0016C303.999 85.3355 295.999 85.336 288 96.0032" stroke="#606F7B" stroke-width="2" stroke-linecap="round"/>
<path d="M224 96.0017C232 85.335 240 85.335 248 96.0017C256 106.668 264 106.668 272 96.0017" stroke="#606F7B" stroke-width="2" stroke-linecap="round"/>
<path d="M160 96.0017C168 85.335 176 85.335 184 96.0017C192 106.668 200 106.668 208 96.0017" stroke="#606F7B" stroke-width="2" stroke-linecap="round"/>
<rect x="384" y="84" width="48" height="24" rx="12" fill="#F1F5F8" stroke="#606F7B" stroke-width="2"/>
<path d="M101 80L118.321 110H83.6795L101 80Z" fill="white" stroke="#606F7B" stroke-width="2"/>
</svg>
