<svg width="512" height="384" viewBox="0 0 512 384" fill="none" xmlns="http://www.w3.org/2000/svg">
<rect width="512" height="384" fill="white"/>
<path fill-rule="evenodd" clip-rule="evenodd" d="M238.817 225C237.712 225 236.817 224.105 236.817 223V216.808C236.817 215.704 237.712 214.808 238.817 214.808H250.405V188.686C250.405 188.629 250.403 188.581 250.4 188.541C250.36 188.538 250.312 188.536 250.255 188.536H240.279C239.174 188.536 238.279 187.641 238.279 186.536V180.344C238.279 179.24 239.174 178.344 240.279 178.344H251.975C254.834 178.344 257.346 179.06 259.129 180.843C260.913 182.626 261.629 185.138 261.629 187.998V214.808H273.217C274.321 214.808 275.217 215.704 275.217 216.808V223C275.217 224.105 274.321 225 273.217 225H238.817ZM259.629 216.808V187.998C259.629 182.895 257.077 180.344 251.975 180.344H240.279V186.536H250.255C251.688 186.536 252.405 187.253 252.405 188.686V216.808H238.817V223H273.217V216.808H259.629ZM255.501 174.776C253.286 174.776 251.333 174.017 249.787 172.47C248.269 170.953 247.481 169.07 247.481 166.928C247.481 164.757 248.251 162.853 249.805 161.368C251.348 159.834 253.295 159.08 255.501 159.08C257.662 159.08 259.567 159.842 261.094 161.351C262.704 162.825 263.521 164.733 263.521 166.928C263.521 169.094 262.685 170.981 261.112 172.488C259.582 174.008 257.671 174.776 255.501 174.776ZM259.715 171.056C260.919 169.909 261.521 168.533 261.521 166.928C261.521 165.265 260.919 163.889 259.715 162.8C258.568 161.653 257.163 161.08 255.501 161.08C253.781 161.08 252.347 161.653 251.201 162.8C250.054 163.889 249.481 165.265 249.481 166.928C249.481 168.533 250.054 169.909 251.201 171.056C252.347 172.203 253.781 172.776 255.501 172.776C257.163 172.776 258.568 172.203 259.715 171.056Z" fill="black"/>
<circle cx="256" cy="192" r="64" stroke="black" stroke-width="2"/>
</svg>
