<svg width="512" height="384" viewBox="0 0 512 384" fill="none" xmlns="http://www.w3.org/2000/svg">
<rect width="512" height="384" fill="white"/>
<path d="M135 93C143.067 81 151.133 81 159.2 93C167.267 105 175.333 105 183.4 93C191.467 81 199.533 81 207.6 93C215.667 105 223.733 105 231.8 93C239.867 81 247.933 81 256 93C264.067 105 272.133 105 280.2 93C288.267 81 296.333 81 304.4 93C312.467 105 320.533 105 328.6 93C336.667 81 344.733 81 352.8 93C360.867 105 368.933 105 377 93" stroke="#DAE1E7" stroke-width="2" stroke-linecap="round"/>
<path d="M135 159C143.067 147 151.133 147 159.2 159C167.267 171 175.333 171 183.4 159C191.467 147 199.533 147 207.6 159C215.667 171 223.733 171 231.8 159C239.867 147 247.933 147 256 159C264.067 171 272.133 171 280.2 159C288.267 147 296.333 147 304.4 159C312.467 171 320.533 171 328.6 159C336.667 147 344.733 147 352.8 159C360.867 171 368.933 171 377 159" stroke="#DAE1E7" stroke-width="2" stroke-linecap="round"/>
<path d="M135 225C143.067 213 151.133 213 159.2 225C167.267 237 175.333 237 183.4 225C191.467 213 199.533 213 207.6 225C215.667 237 223.733 237 231.8 225C239.867 213 247.933 213 256 225C264.067 237 272.133 237 280.2 225C288.267 213 296.333 213 304.4 225C312.467 237 320.533 237 328.6 225C336.667 213 344.733 213 352.8 225C360.867 237 368.933 237 377 225" stroke="#DAE1E7" stroke-width="2" stroke-linecap="round"/>
<path d="M135 291C143.067 279 151.133 279 159.2 291C167.267 303 175.333 303 183.4 291C191.467 279 199.533 279 207.6 291C215.667 303 223.733 303 231.8 291C239.867 279 247.933 279 256 291C264.067 303 272.133 303 280.2 291C288.267 279 296.333 279 304.4 291C312.467 303 320.533 303 328.6 291C336.667 279 344.733 279 352.8 291C360.867 303 368.933 303 377 291" stroke="#DAE1E7" stroke-width="2" stroke-linecap="round"/>
<rect x="166" y="128" width="193" height="140" fill="#C4C4C4" fill-opacity="0.68"/>
<rect x="161" y="123" width="191" height="138" fill="white" stroke="black" stroke-width="2"/>
<path d="M220 175.5C224.056 169.5 228.111 169.5 232.167 175.5C236.222 181.5 240.278 181.5 244.333 175.5C248.389 169.5 252.444 169.5 256.5 175.5C260.556 181.5 264.611 181.5 268.667 175.5C272.722 169.5 276.778 169.5 280.833 175.5C284.889 181.5 288.944 181.5 293 175.5" stroke="#606F7B" stroke-width="2" stroke-linecap="round"/>
<rect x="219" y="208" width="75" height="33" rx="16.5" fill="#DAE1E7" stroke="black" stroke-width="2"/>
<path d="M183 149.5C187.056 143.5 191.111 143.5 195.167 149.5C199.222 155.5 203.278 155.5 207.333 149.5C211.389 143.5 215.444 143.5 219.5 149.5C223.556 155.5 227.611 155.5 231.667 149.5C235.722 143.5 239.778 143.5 243.833 149.5C247.889 155.5 251.944 155.5 256 149.5" stroke="#606F7B" stroke-width="2" stroke-linecap="round"/>
<path d="M295.162 269.857H310.543H312.957L311.25 268.15L273.764 230.664L272.057 228.957V231.372V282.572V284.929L273.752 283.291L284.396 273.001L294.659 297.448L295.046 298.37L295.968 297.983L304.399 294.444L305.321 294.057L304.934 293.134L295.162 269.857Z" fill="white" stroke="black" stroke-width="2"/>
</svg>
