<svg width="512" height="384" viewBox="0 0 512 384" fill="none" xmlns="http://www.w3.org/2000/svg">
<rect width="512" height="384" fill="white"/>
<rect x="70" y="166" width="384" height="64" rx="32" fill="#C4C4C4" fill-opacity="0.68"/>
<rect x="64" y="160" width="384" height="64" rx="32" fill="#DAE1E7" stroke="black" stroke-width="2"/>
<path d="M346 179L358.857 192L346 205" stroke="black" stroke-width="2"/>
<rect x="128" y="160" width="192" height="64" fill="#F1F5F8" stroke="black" stroke-width="2"/>
<circle cx="288" cy="192" r="15" stroke="#606F7B" stroke-width="2"/>
<path d="M403 179L415.857 192L403 205" stroke="black" stroke-width="2"/>
<path d="M416 179L428.857 192L416 205" stroke="black" stroke-width="2"/>
<circle cx="160" cy="192" r="15" stroke="#606F7B" stroke-width="2"/>
<circle cx="96" cy="192" r="15" stroke="#606F7B" stroke-width="2"/>
<circle cx="224" cy="192" r="15" stroke="#606F7B" stroke-width="2"/>
<line x1="384" y1="161" x2="384" y2="225" stroke="black" stroke-width="2"/>
<line x1="256" y1="160" x2="256" y2="224" stroke="black" stroke-width="2"/>
<line x1="192" y1="160" x2="192" y2="224" stroke="black" stroke-width="2"/>
<path d="M248.105 236.486H263.486H265.9L264.193 234.779L226.707 197.293L225 195.586V198V249.2V251.558L226.695 249.919L237.339 239.63L247.602 264.076L247.989 264.998L248.911 264.611L257.342 261.072L258.264 260.685L257.877 259.763L248.105 236.486Z" fill="white" stroke="black" stroke-width="2"/>
<path d="M64 191.508C64 174.106 78.1065 160 95.5077 160H128V224H96.4923C78.5473 224 64 209.453 64 191.508V191.508Z" fill="#F1F5F8" stroke="black" stroke-width="2"/>
<circle cx="96" cy="192" r="15" stroke="#606F7B" stroke-width="2"/>
</svg>
