<svg width="512" height="384" viewBox="0 0 512 384" fill="none" xmlns="http://www.w3.org/2000/svg">
<rect width="512" height="384" fill="white"/>
<path d="M80.6474 85.3127C84.9634 86.0541 87.9229 87.722 89.526 90.3166C91.2524 92.9112 92.1156 95.6911 92.1156 98.6564C92.1156 102.981 90.5742 106.317 87.4913 108.664C84.5318 110.888 81.2023 112 77.5029 112C74.0501 112 70.9056 110.95 68.0694 108.849C65.3565 106.625 64 103.537 64 99.583C64 97.2355 64.2466 95.0734 64.7399 93.0965C65.3565 91.1197 66.4046 88.5869 67.8844 85.4981L75.6532 69.0039C77.1329 65.668 79.4143 64 82.4971 64C84.1002 64 85.395 64.4942 86.3815 65.4826C87.4913 66.3475 88.0462 67.4595 88.0462 68.8185C88.0462 69.1892 87.9229 69.7452 87.6763 70.4865L80.6474 85.3127ZM116.532 85.3127C120.848 86.0541 123.807 87.722 125.41 90.3166C127.137 92.9112 128 95.6911 128 98.6564C128 102.981 126.459 106.317 123.376 108.664C120.416 110.888 117.087 112 113.387 112C109.934 112 106.79 110.95 103.954 108.849C101.241 106.625 99.8844 103.537 99.8844 99.583C99.8844 97.2355 100.131 95.0734 100.624 93.0965C101.241 91.1197 102.289 88.5869 103.769 85.4981L111.538 69.0039C113.017 65.668 115.299 64 118.382 64C119.985 64 121.279 64.4942 122.266 65.4826C123.376 66.3475 123.931 67.4595 123.931 68.8185C123.931 69.1892 123.807 69.7452 123.561 70.4865L116.532 85.3127Z" fill="#DAE1E7"/>
<path d="M431.353 298.687C427.037 297.946 424.077 296.278 422.474 293.683C420.748 291.089 419.884 288.309 419.884 285.344C419.884 281.019 421.426 277.683 424.509 275.336C427.468 273.112 430.798 272 434.497 272C437.95 272 441.094 273.05 443.931 275.151C446.644 277.375 448 280.463 448 284.417C448 286.764 447.753 288.927 447.26 290.903C446.644 292.88 445.595 295.413 444.116 298.502L436.347 314.996C434.867 318.332 432.586 320 429.503 320C427.9 320 426.605 319.506 425.618 318.517C424.509 317.652 423.954 316.541 423.954 315.181C423.954 314.811 424.077 314.255 424.324 313.514L431.353 298.687ZM395.468 298.687C391.152 297.946 388.193 296.278 386.59 293.683C384.863 291.089 384 288.309 384 285.344C384 281.019 385.541 277.683 388.624 275.336C391.584 273.112 394.913 272 398.613 272C402.066 272 405.21 273.05 408.046 275.151C410.759 277.375 412.116 280.463 412.116 284.417C412.116 286.764 411.869 288.927 411.376 290.903C410.759 292.88 409.711 295.413 408.231 298.502L400.462 314.996C398.983 318.332 396.701 320 393.618 320C392.015 320 390.721 319.506 389.734 318.517C388.624 317.652 388.069 316.541 388.069 315.181C388.069 314.811 388.193 314.255 388.439 313.514L395.468 298.687Z" fill="#DAE1E7"/>
<path d="M64 288C72 277.333 80 277.333 88 288C96 298.667 104 298.667 112 288C120 277.333 128 277.333 136 288C144 298.667 152 298.667 160 288C168 277.333 176 277.333 184 288C192 298.667 200 298.667 208 288C216 277.333 224 277.333 232 288C240 298.667 248 298.667 256 288C264 277.333 272 277.333 280 288C288 298.667 296 298.667 304 288C312 277.333 320 277.333 328 288C336 298.667 344 298.667 352 288" stroke="#606F7B" stroke-width="2" stroke-linecap="round"/>
<path d="M160 96C168 85.3333 176 85.3333 184 96C192 106.667 200 106.667 208 96C216 85.3333 224 85.3333 232 96C240 106.667 248 106.667 256 96C264 85.3333 272 85.3333 280 96C288 106.667 296 106.667 304 96C312 85.3333 320 85.3333 328 96C336 106.667 344 106.667 352 96C360 85.3333 368 85.3333 376 96C384 106.667 392 106.667 400 96C408 85.3333 416 85.3333 424 96C432 106.667 440 106.667 448 96" stroke="#606F7B" stroke-width="2" stroke-linecap="round"/>
<path d="M64 160C72 149.333 80 149.333 88 160C96 170.667 104 170.667 112 160C120 149.333 128 149.333 136 160C144 170.667 152 170.667 160 160C168 149.333 176 149.333 184 160C192 170.667 200 170.667 208 160C216 149.333 224 149.333 232 160C240 170.667 248 170.667 256 160C264 149.333 272 149.333 280 160C288 170.667 296 170.667 304 160C312 149.333 320 149.333 328 160C336 170.667 344 170.667 352 160C360 149.333 368 149.333 376 160C384 170.667 392 170.667 400 160C408 149.333 416 149.333 424 160C432 170.667 440 170.667 448 160" stroke="#606F7B" stroke-width="2" stroke-linecap="round"/>
<path d="M64 225C72 214.333 80 214.333 88 225C96 235.667 104 235.667 112 225C120 214.333 128 214.333 136 225C144 235.667 152 235.667 160 225C168 214.333 176 214.333 184 225C192 235.667 200 235.667 208 225C216 214.333 224 214.333 232 225C240 235.667 248 235.667 256 225C264 214.333 272 214.333 280 225C288 235.667 296 235.667 304 225C312 214.333 320 214.333 328 225C336 235.667 344 235.667 352 225C360 214.333 368 214.333 376 225C384 235.667 392 235.667 400 225C408 214.333 416 214.333 424 225C432 235.667 440 235.667 448 225" stroke="#606F7B" stroke-width="2" stroke-linecap="round"/>
</svg>
