<svg width="512" height="384" viewBox="0 0 512 384" fill="none" xmlns="http://www.w3.org/2000/svg">
<rect width="512" height="384" fill="white"/>
<path d="M256 160L263.858 184.184L289.287 184.184L268.714 199.131L276.572 223.316L256 208.369L235.428 223.316L243.286 199.131L222.713 184.184L248.142 184.184L256 160Z" fill="#DAE1E7" stroke="black" stroke-width="2"/>
<path d="M177 160L184.858 184.184L210.287 184.184L189.714 199.131L197.572 223.316L177 208.369L156.428 223.316L164.286 199.131L143.713 184.184L169.142 184.184L177 160Z" fill="#DAE1E7" stroke="black" stroke-width="2"/>
<path d="M415 160L422.858 184.184L448.287 184.184L427.714 199.131L435.572 223.316L415 208.369L394.428 223.316L402.286 199.131L381.713 184.184L407.142 184.184L415 160Z" fill="white" stroke="black" stroke-width="2"/>
<path d="M336 160L343.858 184.184L369.287 184.184L348.714 199.131L356.572 223.316L336 208.369L315.428 223.316L323.286 199.131L302.713 184.184L328.142 184.184L336 160Z" fill="#DAE1E7" stroke="black" stroke-width="2"/>
<path d="M97 160L104.858 184.184L130.287 184.184L109.714 199.131L117.572 223.316L97 208.369L76.4275 223.316L84.2855 199.131L63.713 184.184L89.142 184.184L97 160Z" fill="#DAE1E7" stroke="black" stroke-width="2"/>
</svg>
