<svg width="512" height="384" viewBox="0 0 512 384" fill="none" xmlns="http://www.w3.org/2000/svg">
<rect width="512" height="384" fill="white"/>
<rect x="64" y="64" width="384" height="64" fill="#F1F5F8"/>
<rect x="65" y="65" width="382" height="254" stroke="black" stroke-width="2"/>
<path d="M336 96C328.001 106.667 320.001 106.668 312 96.0016C303.999 85.3355 295.999 85.336 288 96.0032" stroke="#C4C4C4" stroke-width="2" stroke-linecap="round"/>
<path d="M224 96.0017C232 85.335 240 85.335 248 96.0017C256 106.668 264 106.668 272 96.0017" stroke="#C4C4C4" stroke-width="2" stroke-linecap="round"/>
<path d="M160 96.0017C168 85.335 176 85.335 184 96.0017C192 106.668 200 106.668 208 96.0017" stroke="#C4C4C4" stroke-width="2" stroke-linecap="round"/>
<rect x="384" y="84" width="48" height="24" rx="12" fill="#F1F5F8" stroke="#DAE1E7" stroke-width="2"/>
<path d="M101 80L118.321 110H83.6795L101 80Z" fill="white" stroke="#606F7B" stroke-width="2"/>
<rect x="76" y="76" width="82" height="48" fill="#D7D7D7"/>
<path d="M94 159C102.067 147 110.133 147 118.2 159C126.267 171 134.333 171 142.4 159C150.467 147 158.533 147 166.6 159C174.667 171 182.733 171 190.8 159C198.867 147 206.933 147 215 159C223.067 171 231.133 171 239.2 159C247.267 147 255.333 147 263.4 159C271.467 171 279.533 171 287.6 159C295.667 147 303.733 147 311.8 159C319.867 171 327.933 171 336 159" stroke="#DAE1E7" stroke-width="2" stroke-linecap="round"/>
<path d="M94 223C102.067 211 110.133 211 118.2 223C126.267 235 134.333 235 142.4 223C150.467 211 158.533 211 166.6 223C174.667 235 182.733 235 190.8 223C198.867 211 206.933 211 215 223C223.067 235 231.133 235 239.2 223C247.267 211 255.333 211 263.4 223C271.467 235 279.533 235 287.6 223C295.667 211 303.733 211 311.8 223C319.867 235 327.933 235 336 223" stroke="#DAE1E7" stroke-width="2" stroke-linecap="round"/>
<path d="M94 287C102.067 275 110.133 275 118.2 287C126.267 299 134.333 299 142.4 287C150.467 275 158.533 275 166.6 287C174.667 299 182.733 299 190.8 287C198.867 275 206.933 275 215 287C223.067 299 231.133 299 239.2 287C247.267 275 255.333 275 263.4 287C271.467 299 279.533 299 287.6 287C295.667 275 303.733 275 311.8 287C319.867 299 327.933 299 336 287" stroke="#DAE1E7" stroke-width="2" stroke-linecap="round"/>
<rect x="72" y="72" width="82" height="48" fill="#DAE1E7" stroke="#606F7B" stroke-width="2"/>
<path d="M137 94C129.001 104.667 121.001 104.668 113 94.0016C105 83.3355 96.9997 83.336 89.0004 94.0032" stroke="#606F7B" stroke-width="2" stroke-linecap="round"/>
<line x1="82" y1="111" x2="144" y2="111" stroke="#606F7B" stroke-width="2" stroke-linecap="round"/>
</svg>
