<svg width="512" height="384" viewBox="0 0 512 384" fill="none" xmlns="http://www.w3.org/2000/svg">
<rect width="512" height="384" fill="white"/>
<rect x="45" y="121" width="435" height="225" fill="#C4C4C4" fill-opacity="0.68"/>
<path d="M190 68C190 59.1634 197.163 52 206 52H313C321.837 52 329 59.1634 329 68V115H190V68Z" fill="#DAE1E7"/>
<path d="M190 68C190 59.1634 197.163 52 206 52H313C321.837 52 329 59.1634 329 68V115H190V68Z" stroke="#DAE1E7"/>
<path d="M240 84C248 72 256 72 264 84C272 96 280 96 288 84" stroke="black" stroke-width="2"/>
<path d="M335 68C335 59.1634 342.163 52 351 52H458C466.837 52 474 59.1634 474 68V115H335V68Z" fill="#DAE1E7"/>
<path d="M335 68C335 59.1634 342.163 52 351 52H458C466.837 52 474 59.1634 474 68V115H335V68Z" stroke="#DAE1E7"/>
<path d="M381 84C389 72 397 72 405 84C413 96 421 96 429 84" stroke="black" stroke-width="2"/>
<mask id="path-6-inside-1_70_2" fill="white">
<path fill-rule="evenodd" clip-rule="evenodd" d="M55 52C46.1634 52 39 59.1634 39 68V115V340H474V115H184V68C184 59.1634 176.837 52 168 52H55Z"/>
</mask>
<path fill-rule="evenodd" clip-rule="evenodd" d="M55 52C46.1634 52 39 59.1634 39 68V115V340H474V115H184V68C184 59.1634 176.837 52 168 52H55Z" fill="#F1F5F8"/>
<path d="M39 340H37V342H39V340ZM474 340V342H476V340H474ZM474 115H476V113H474V115ZM184 115H182V117H184V115ZM41 68C41 60.268 47.268 54 55 54V50C45.0589 50 37 58.0589 37 68H41ZM41 115V68H37V115H41ZM41 340V115H37V340H41ZM474 338H39V342H474V338ZM472 115V340H476V115H472ZM184 117H474V113H184V117ZM182 68V115H186V68H182ZM168 54C175.732 54 182 60.268 182 68H186C186 58.0589 177.941 50 168 50V54ZM55 54H168V50H55V54Z" fill="black" mask="url(#path-6-inside-1_70_2)"/>
<path d="M88 84C96 72 104 72 112 84C120 96 128 96 136 84" stroke="black" stroke-width="2"/>
<path d="M87 161C95.0667 149 103.133 149 111.2 161C119.267 173 127.333 173 135.4 161C143.467 149 151.533 149 159.6 161C167.667 173 175.733 173 183.8 161C191.867 149 199.933 149 208 161C216.067 173 224.133 173 232.2 161C240.267 149 248.333 149 256.4 161C264.467 173 272.533 173 280.6 161C288.667 149 296.733 149 304.8 161C312.867 173 320.933 173 329 161" stroke="black" stroke-width="2"/>
<path d="M87 224C95.0667 212 103.133 212 111.2 224C119.267 236 127.333 236 135.4 224C143.467 212 151.533 212 159.6 224C167.667 236 175.733 236 183.8 224C191.867 212 199.933 212 208 224C216.067 236 224.133 236 232.2 224C240.267 212 248.333 212 256.4 224C264.467 236 272.533 236 280.6 224C288.667 212 296.733 212 304.8 224C312.867 236 320.933 236 329 224" stroke="black" stroke-width="2"/>
<path d="M87 287C95.0667 275 103.133 275 111.2 287C119.267 299 127.333 299 135.4 287C143.467 275 151.533 275 159.6 287C167.667 299 175.733 299 183.8 287C191.867 275 199.933 275 208 287C216.067 299 224.133 299 232.2 287C240.267 275 248.333 275 256.4 287C264.467 299 272.533 299 280.6 287C288.667 275 296.733 275 304.8 287C312.867 299 320.933 299 329 287" stroke="black" stroke-width="2"/>
</svg>
