<svg width="512" height="384" viewBox="0 0 512 384" fill="none" xmlns="http://www.w3.org/2000/svg">
<rect width="512" height="384" fill="white"/>
<rect x="134" y="294" width="256" height="64" rx="16" fill="#D7D7D7"/>
<rect x="128" y="288" width="256" height="64" rx="16" fill="#F1F5F8" stroke="black" stroke-width="2"/>
<path d="M165.816 305.5L180.105 330.25C181.26 332.25 179.816 334.75 177.507 334.75H148.928C146.619 334.75 145.175 332.25 146.33 330.25L160.62 305.5C161.774 303.5 164.661 303.5 165.816 305.5Z" stroke="black" stroke-width="2" stroke-linecap="round" stroke-linejoin="round"/>
<path d="M162.204 324.02L161.984 315H164.024L163.784 324.02H162.204ZM163.004 329.04C162.591 329.04 162.237 328.9 161.944 328.62C161.651 328.34 161.504 327.993 161.504 327.58C161.504 327.18 161.651 326.84 161.944 326.56C162.237 326.28 162.591 326.14 163.004 326.14C163.431 326.14 163.784 326.28 164.064 326.56C164.357 326.84 164.504 327.18 164.504 327.58C164.504 327.993 164.357 328.34 164.064 328.62C163.784 328.9 163.431 329.04 163.004 329.04Z" fill="black"/>
<path d="M134 128C142.067 116 150.133 116 158.2 128C166.267 140 174.333 140 182.4 128C190.467 116 198.533 116 206.6 128C214.667 140 222.733 140 230.8 128C238.867 116 246.933 116 255 128C263.067 140 271.133 140 279.2 128C287.267 116 295.333 116 303.4 128C311.467 140 319.533 140 327.6 128C335.667 116 343.733 116 351.8 128C359.867 140 367.933 140 376 128" stroke="#DAE1E7" stroke-width="2" stroke-linecap="round"/>
<path d="M134 65C142.067 53 150.133 53 158.2 65C166.267 77 174.333 77 182.4 65C190.467 53 198.533 53 206.6 65C214.667 77 222.733 77 230.8 65C238.867 53 246.933 53 255 65C263.067 77 271.133 77 279.2 65C287.267 53 295.333 53 303.4 65C311.467 77 319.533 77 327.6 65C335.667 53 343.733 53 351.8 65C359.867 77 367.933 77 376 65" stroke="#DAE1E7" stroke-width="2" stroke-linecap="round"/>
<path d="M134 192C142.067 180 150.133 180 158.2 192C166.267 204 174.333 204 182.4 192C190.467 180 198.533 180 206.6 192C214.667 204 222.733 204 230.8 192C238.867 180 246.933 180 255 192C263.067 204 271.133 204 279.2 192C287.267 180 295.333 180 303.4 192C311.467 204 319.533 204 327.6 192C335.667 180 343.733 180 351.8 192C359.867 204 367.933 204 376 192" stroke="#DAE1E7" stroke-width="2" stroke-linecap="round"/>
<path d="M134 256C142.067 244 150.133 244 158.2 256C166.267 268 174.333 268 182.4 256C190.467 244 198.533 244 206.6 256C214.667 268 222.733 268 230.8 256C238.867 244 246.933 244 255 256C263.067 268 271.133 268 279.2 256C287.267 244 295.333 244 303.4 256C311.467 268 319.533 268 327.6 256C335.667 244 343.733 244 351.8 256C359.867 268 367.933 268 376 256" stroke="#DAE1E7" stroke-width="2" stroke-linecap="round"/>
<path d="M203 320C211.111 308 219.222 308 227.333 320C235.444 332 243.556 332 251.667 320C259.778 308 267.889 308 276 320C284.111 332 292.222 332 300.333 320C308.444 308 316.556 308 324.667 320C332.778 332 340.889 332 349 320" stroke="#606F7B" stroke-width="2" stroke-linecap="round"/>
</svg>
