<?xml version="1.0" standalone="no"?>
<!DOCTYPE svg PUBLIC "-//W3C//DTD SVG 20010904//EN"
 "http://www.w3.org/TR/2001/REC-SVG-20010904/DTD/svg10.dtd">
<svg version="1.0" xmlns="http://www.w3.org/2000/svg"
 width="512.000000pt" height="512.000000pt" viewBox="0 0 512.000000 512.000000"
 preserveAspectRatio="xMidYMid meet">
<metadata>
Created by potrace 1.14, written by Peter Selinger 2001-2017
</metadata>
<g transform="translate(0.000000,512.000000) scale(0.100000,-0.100000)"
fill="#000000" stroke="none">
<path d="M3725 5113 c-16 -2 -63 -10 -102 -19 -40 -8 -75 -15 -78 -15 -13 1
-175 -63 -238 -95 -64 -32 -151 -85 -202 -124 -59 -45 -218 -215 -262 -280
-105 -156 -178 -339 -209 -520 -12 -69 -11 -294 2 -373 22 -139 8 -219 -57
-316 -61 -92 -164 -158 -273 -175 -21 -4 -50 -9 -63 -12 -16 -5 -31 0 -46 14
-91 82 -219 114 -337 82 -70 -19 -107 -45 -222 -159 l-108 -105 -187 185
c-104 103 -209 199 -236 214 -55 31 -132 62 -179 71 -41 7 -162 7 -206 -1 -53
-9 -144 -46 -197 -80 -59 -38 -398 -373 -420 -415 -17 -33 -19 -87 -6 -123 5
-13 37 -51 70 -85 34 -33 61 -64 61 -69 0 -5 -25 -33 -56 -63 -122 -120 -166
-209 -170 -344 -3 -120 22 -200 91 -291 12 -16 449 -457 971 -980 802 -803
958 -955 1009 -981 138 -73 303 -72 435 3 25 14 80 60 122 101 l77 76 28 -25
c15 -13 32 -30 36 -36 4 -7 29 -29 54 -48 39 -29 54 -35 97 -35 32 0 61 7 78
18 53 35 367 360 407 421 103 160 115 368 30 535 -42 82 -46 87 -246 289
l-176 178 107 107 c137 136 169 196 169 317 0 70 -4 89 -31 145 -17 36 -43 78
-57 93 l-26 28 24 98 c27 108 54 157 115 215 106 100 209 126 382 97 82 -14
333 -6 420 13 445 97 794 406 934 827 151 451 35 952 -297 1281 -174 171 -417
302 -642 344 -22 4 -47 9 -55 11 -20 6 -297 10 -335 6z"/>
</g>
</svg>
