<svg width="512" height="384" viewBox="0 0 512 384" fill="none" xmlns="http://www.w3.org/2000/svg">
<rect width="512" height="384" fill="white"/>
<rect x="65" y="129" width="382" height="126" rx="15" fill="#F1F5F8" stroke="black" stroke-width="2"/>
<path d="M125.62 177.5C126.774 175.5 129.661 175.5 130.816 177.5L145.105 202.25C146.26 204.25 144.816 206.75 142.507 206.75H113.928C111.619 206.75 110.175 204.25 111.33 202.25L125.62 177.5Z" stroke="black" stroke-width="2" stroke-linecap="round" stroke-linejoin="round"/>
<path d="M127.204 196.02L126.984 187H129.024L128.784 196.02H127.204ZM128.004 201.04C127.591 201.04 127.237 200.9 126.944 200.62C126.651 200.34 126.504 199.993 126.504 199.58C126.504 199.18 126.651 198.84 126.944 198.56C127.237 198.28 127.591 198.14 128.004 198.14C128.431 198.14 128.784 198.28 129.064 198.56C129.357 198.84 129.504 199.18 129.504 199.58C129.504 199.993 129.357 200.34 129.064 200.62C128.784 200.9 128.431 201.04 128.004 201.04Z" fill="black"/>
<path d="M192 192C200 181.333 208 181.333 216 192C224 202.667 232 202.667 240 192C248 181.333 256 181.333 264 192C272 202.667 280 202.667 288 192C296 181.333 304 181.333 312 192C320 202.667 328 202.667 336 192C344 181.333 352 181.333 360 192C368 202.667 376 202.667 384 192" stroke="#606F7B" stroke-width="2" stroke-linecap="round"/>
</svg>
