<svg width="512" height="384" viewBox="0 0 512 384" fill="none" xmlns="http://www.w3.org/2000/svg">
<rect width="512" height="384" fill="white"/>
<circle cx="256" cy="192" r="63" fill="#F1F5F8" stroke="black" stroke-width="2"/>
<mask id="path-2-inside-1_76_42" fill="white">
<path fill-rule="evenodd" clip-rule="evenodd" d="M217.228 242.923C216.871 240.782 216.686 238.584 216.686 236.343C216.686 214.378 234.492 196.571 256.457 196.571C278.422 196.571 296.229 214.378 296.229 236.343C296.229 238.302 296.087 240.229 295.813 242.112C284.885 250.806 271.049 256 256 256C241.425 256 227.987 251.128 217.228 242.923Z"/>
</mask>
<path fill-rule="evenodd" clip-rule="evenodd" d="M217.228 242.923C216.871 240.782 216.686 238.584 216.686 236.343C216.686 214.378 234.492 196.571 256.457 196.571C278.422 196.571 296.229 214.378 296.229 236.343C296.229 238.302 296.087 240.229 295.813 242.112C284.885 250.806 271.049 256 256 256C241.425 256 227.987 251.128 217.228 242.923Z" fill="#DAE1E7"/>
<path d="M217.228 242.923L215.255 243.251L215.385 244.033L216.015 244.513L217.228 242.923ZM295.813 242.112L297.058 243.677L297.679 243.184L297.792 242.4L295.813 242.112ZM219.2 242.594C218.862 240.562 218.686 238.474 218.686 236.343H214.686C214.686 238.695 214.88 241.003 215.255 243.251L219.2 242.594ZM218.686 236.343C218.686 215.482 235.597 198.571 256.457 198.571V194.571C233.387 194.571 214.686 213.273 214.686 236.343H218.686ZM256.457 198.571C277.318 198.571 294.229 215.482 294.229 236.343H298.229C298.229 213.273 279.527 194.571 256.457 194.571V198.571ZM294.229 236.343C294.229 238.206 294.094 240.036 293.834 241.824L297.792 242.4C298.08 240.421 298.229 238.399 298.229 236.343H294.229ZM294.568 240.547C283.981 248.969 270.581 254 256 254V258C271.518 258 285.789 252.642 297.058 243.677L294.568 240.547ZM256 254C241.878 254 228.864 249.281 218.44 241.332L216.015 244.513C227.111 252.974 240.971 258 256 258V254Z" fill="black" mask="url(#path-2-inside-1_76_42)"/>
<circle cx="256.457" cy="172.343" r="18.6571" fill="#DAE1E7" stroke="black" stroke-width="2"/>
</svg>
