<svg width="512" height="384" viewBox="0 0 512 384" fill="none" xmlns="http://www.w3.org/2000/svg">
<rect width="512" height="384" fill="white"/>
<rect x="70" y="134" width="384" height="128" rx="64" fill="#C4C4C4" fill-opacity="0.68"/>
<rect x="65" y="129" width="382" height="126" rx="63" fill="#DAE1E7" stroke="black" stroke-width="2"/>
<path d="M136 192C144 181.333 152 181.333 160 192C168 202.667 176 202.667 184 192C192 181.333 200 181.333 208 192C216 202.667 224 202.667 232 192C240 181.333 248 181.333 256 192C264 202.667 272 202.667 280 192C288 181.333 296 181.333 304 192C312 202.667 320 202.667 328 192C336 181.333 344 181.333 352 192C360 202.667 368 202.667 376 192" stroke="#606F7B" stroke-width="2" stroke-linecap="round"/>
<path d="M408.162 266.857H423.543H425.957L424.25 265.15L386.764 227.664L385.057 225.957V228.371V279.571V281.929L386.752 280.29L397.396 270.001L407.659 294.448L408.046 295.37L408.968 294.983L417.399 291.443L418.321 291.056L417.934 290.134L408.162 266.857Z" fill="white" stroke="black" stroke-width="2"/>
</svg>
