<svg width="512" height="384" viewBox="0 0 512 384" fill="none" xmlns="http://www.w3.org/2000/svg">
<rect width="512" height="384" fill="white"/>
<rect x="104" y="138" width="303" height="188" rx="20" fill="#C4C4C4" fill-opacity="0.68"/>
<rect x="97" y="65" width="222" height="62" rx="15" fill="#DAE1E7" stroke="black" stroke-width="2"/>
<rect x="96" y="132" width="305" height="188" rx="16" fill="#F1F5F8"/>
<path d="M96 256H401V304C401 312.837 393.837 320 385 320H112C103.163 320 96 312.837 96 304V256Z" fill="#DAE1E7"/>
<path d="M128 288C136 277.333 144 277.333 152 288C160 298.667 168 298.667 176 288C184 277.333 192 277.333 200 288C208 298.667 216 298.667 224 288C232 277.333 240 277.333 248 288C256 298.667 264 298.667 272 288" stroke="#606F7B" stroke-width="2" stroke-linecap="round"/>
<path d="M128 160C136 149.333 144 149.333 152 160C160 170.667 168 170.667 176 160C184 149.333 192 149.333 200 160C208 170.667 216 170.667 224 160C232 149.333 240 149.333 248 160C256 170.667 264 170.667 272 160C280 149.333 288 149.333 296 160C304 170.667 312 170.667 320 160" stroke="#606F7B" stroke-width="2" stroke-linecap="round"/>
<path d="M384.162 327.857H399.543H401.957L400.25 326.15L362.764 288.664L361.057 286.957V289.371V340.571V342.929L362.752 341.29L373.396 331.001L383.659 355.448L384.046 356.37L384.968 355.983L393.399 352.443L394.321 352.056L393.934 351.134L384.162 327.857Z" fill="white" stroke="black" stroke-width="2"/>
<path d="M289.941 89L272.971 105.971L256 89" stroke="black" stroke-width="2"/>
<path d="M128 97C136 86.3333 144 86.3333 152 97C160 107.667 168 107.667 176 97C184 86.3333 192 86.3333 200 97C208 107.667 216 107.667 224 97" stroke="#606F7B" stroke-width="2" stroke-linecap="round"/>
<path d="M128 224C136 213.333 144 213.333 152 224C160 234.667 168 234.667 176 224C184 213.333 192 213.333 200 224C208 234.667 216 234.667 224 224C232 213.333 240 213.333 248 224C256 234.667 264 234.667 272 224C280 213.333 288 213.333 296 224C304 234.667 312 234.667 320 224C328 213.333 336 213.333 344 224C352 234.667 360 234.667 368 224" stroke="#606F7B" stroke-width="2" stroke-linecap="round"/>
</svg>
