<svg width="512" height="384" viewBox="0 0 512 384" fill="none" xmlns="http://www.w3.org/2000/svg">
<rect width="512" height="384" fill="white"/>
<rect x="128" y="64" width="192" height="32" fill="#F1F5F8" stroke="black" stroke-width="2"/>
<path d="M128 40C136 29.3333 144 29.3333 152 40C160 50.6667 168 50.6667 176 40C184 29.3333 192 29.3333 200 40C208 50.6667 216 50.6667 224 40C232 29.3333 240 29.3333 248 40" stroke="#606F7B" stroke-width="2" stroke-linecap="round"/>
<rect x="128" y="160" width="256" height="32" fill="#F1F5F8" stroke="black" stroke-width="2"/>
<rect x="129" y="161" width="254" height="3" fill="#D7D7D7"/>
<rect x="129" y="164" width="3" height="27" fill="#D7D7D7"/>
<path d="M128 136C136 125.333 144 125.333 152 136C160 146.667 168 146.667 176 136C184 125.333 192 125.333 200 136C208 146.667 216 146.667 224 136C232 125.333 240 125.333 248 136C256 146.667 264 146.667 272 136" stroke="#606F7B" stroke-width="2" stroke-linecap="round"/>
<rect x="128" y="224" width="32" height="32" rx="8" fill="#DAE1E7" stroke="black" stroke-width="2"/>
<path d="M153 234L139.512 247L134 241.688" stroke="black" stroke-width="2"/>
<path d="M176 242C184 231.333 192 231.333 200 242C208 252.667 216 252.667 224 242C232 231.333 240 231.333 248 242C256 252.667 264 252.667 272 242C280 231.333 288 231.333 296 242" stroke="#606F7B" stroke-width="2" stroke-linecap="round"/>
<rect x="309" y="292" width="80" height="48" rx="24" fill="#C4C4C4" fill-opacity="0.68"/>
<rect x="305" y="288" width="80" height="48" rx="24" fill="#F1F5F8" stroke="black" stroke-width="2"/>
<path d="M321 312C329 301.333 337 301.333 345 312C353 322.667 361 322.667 369 312" stroke="#606F7B" stroke-width="2" stroke-linecap="round"/>
<rect x="129" y="65" width="190" height="3" fill="#D7D7D7"/>
<rect x="129" y="68" width="3" height="27" fill="#D7D7D7"/>
</svg>
