<svg width="512" height="384" viewBox="0 0 512 384" fill="none" xmlns="http://www.w3.org/2000/svg">
<rect width="512" height="384" fill="white"/>
<path d="M63.9974 191.997L448 191.997" stroke="black" stroke-width="2" stroke-linecap="round"/>
<path d="M135 144C143.067 132 151.133 132 159.2 144C167.267 156 175.333 156 183.4 144C191.467 132 199.533 132 207.6 144C215.667 156 223.733 156 231.8 144C239.867 132 247.933 132 256 144C264.067 156 272.133 156 280.2 144C288.267 132 296.333 132 304.4 144C312.467 156 320.533 156 328.6 144C336.667 132 344.733 132 352.8 144C360.867 156 368.933 156 377 144" stroke="#DAE1E7" stroke-width="2" stroke-linecap="round"/>
<path d="M135 81C143.067 69 151.133 69 159.2 81C167.267 93 175.333 93 183.4 81C191.467 69 199.533 69 207.6 81C215.667 93 223.733 93 231.8 81C239.867 69 247.933 69 256 81C264.067 93 272.133 93 280.2 81C288.267 69 296.333 69 304.4 81C312.467 93 320.533 93 328.6 81C336.667 69 344.733 69 352.8 81C360.867 93 368.933 93 377 81" stroke="#DAE1E7" stroke-width="2" stroke-linecap="round"/>
<path d="M142 240C150.067 228 158.133 228 166.2 240C174.267 252 182.333 252 190.4 240C198.467 228 206.533 228 214.6 240C222.667 252 230.733 252 238.8 240C246.867 228 254.933 228 263 240C271.067 252 279.133 252 287.2 240C295.267 228 303.333 228 311.4 240C319.467 252 327.533 252 335.6 240C343.667 228 351.733 228 359.8 240C367.867 252 375.933 252 384 240" stroke="#DAE1E7" stroke-width="2" stroke-linecap="round"/>
<path d="M142 304C150.067 292 158.133 292 166.2 304C174.267 316 182.333 316 190.4 304C198.467 292 206.533 292 214.6 304C222.667 316 230.733 316 238.8 304C246.867 292 254.933 292 263 304C271.067 316 279.133 316 287.2 304C295.267 292 303.333 292 311.4 304C319.467 316 327.533 316 335.6 304C343.667 292 351.733 292 359.8 304C367.867 316 375.933 316 384 304" stroke="#DAE1E7" stroke-width="2" stroke-linecap="round"/>
</svg>
