<svg width="512" height="384" viewBox="0 0 512 384" fill="none" xmlns="http://www.w3.org/2000/svg">
<rect width="512" height="384" fill="white"/>
<path d="M96 148C104.067 137.333 112.133 137.333 120.2 148C128.267 158.667 136.333 158.667 144.4 148C152.467 137.333 160.533 137.333 168.6 148C176.667 158.667 184.733 158.667 192.8 148C200.867 137.333 208.933 137.333 217 148C225.067 158.667 233.133 158.667 241.2 148C249.267 137.333 257.333 137.333 265.4 148C273.467 158.667 281.533 158.667 289.6 148C297.667 137.333 305.733 137.333 313.8 148C321.867 158.667 329.933 158.667 338 148" stroke="#606F7B" stroke-width="2" stroke-linecap="round"/>
<rect x="96" y="180" width="320" height="64" fill="#F1F5F8" stroke="#DAE1E7" stroke-width="2"/>
</svg>
