<svg width="512" height="384" viewBox="0 0 512 384" fill="none" xmlns="http://www.w3.org/2000/svg">
<rect width="512" height="384" fill="white"/>
<path d="M135 176C143.067 165.333 151.133 165.333 159.2 176C167.267 186.667 175.333 186.667 183.4 176C191.467 165.333 199.533 165.333 207.6 176C215.667 186.667 223.733 186.667 231.8 176C239.867 165.333 247.933 165.333 256 176C264.067 186.667 272.133 186.667 280.2 176C288.267 165.333 296.333 165.333 304.4 176C312.467 186.667 320.533 186.667 328.6 176C336.667 165.333 344.733 165.333 352.8 176C360.867 186.667 368.933 186.667 377 176" stroke="#606F7B" stroke-width="2" stroke-linecap="round"/>
<line x1="128" y1="208" x2="384" y2="208" stroke="black" stroke-width="2" stroke-linecap="round"/>
<path d="M362.105 235.486H377.486H379.9L378.193 233.779L340.707 196.293L339 194.586V197V248.2V250.558L340.695 248.919L351.339 238.63L361.602 263.076L361.989 263.998L362.911 263.611L371.342 260.072L372.264 259.685L371.877 258.763L362.105 235.486Z" fill="white" stroke="black" stroke-width="2"/>
</svg>
