<svg width="512" height="384" viewBox="0 0 512 384" fill="none" xmlns="http://www.w3.org/2000/svg">
<rect width="512" height="384" fill="white"/>
<circle cx="115.5" cy="124.5" r="16.5" fill="#DAE1E7" stroke="black" stroke-width="2"/>
<path d="M172 192C180.067 180 188.133 180 196.2 192C204.267 204 212.333 204 220.4 192C228.467 180 236.533 180 244.6 192C252.667 204 260.733 204 268.8 192C276.867 180 284.933 180 293 192C301.067 204 309.133 204 317.2 192C325.267 180 333.333 180 341.4 192C349.467 204 357.533 204 365.6 192C373.667 180 381.733 180 389.8 192C397.867 204 405.933 204 414 192" stroke="#606F7B" stroke-width="2" stroke-linecap="round"/>
<circle cx="115.5" cy="191.5" r="16.5" fill="#DAE1E7" stroke="black" stroke-width="2"/>
<circle cx="115.5" cy="258.5" r="16.5" fill="#DAE1E7" stroke="black" stroke-width="2"/>
<path d="M172 125C180.083 113 188.167 113 196.25 125C204.333 137 212.417 137 220.5 125C228.583 113 236.667 113 244.75 125C252.833 137 260.917 137 269 125C277.083 113 285.167 113 293.25 125C301.333 137 309.417 137 317.5 125C325.583 113 333.667 113 341.75 125C349.833 137 357.917 137 366 125" stroke="#606F7B" stroke-width="2" stroke-linecap="round"/>
<path d="M172 259C180.111 247 188.222 247 196.333 259C204.444 271 212.556 271 220.667 259C228.778 247 236.889 247 245 259C253.111 271 261.222 271 269.333 259C277.444 247 285.556 247 293.667 259C301.778 271 309.889 271 318 259" stroke="#606F7B" stroke-width="2" stroke-linecap="round"/>
</svg>
