<svg width="512" height="384" viewBox="0 0 512 384" fill="none" xmlns="http://www.w3.org/2000/svg">
<rect width="512" height="384" fill="white"/>
<rect x="64" y="160" width="384" height="64" fill="#F1F5F8" stroke="black" stroke-width="2"/>
<path fill-rule="evenodd" clip-rule="evenodd" d="M414.571 188.786C414.571 194.19 410.19 198.571 404.786 198.571C399.381 198.571 395 194.19 395 188.786C395 183.381 399.381 179 404.786 179C410.19 179 414.571 183.381 414.571 188.786ZM412.654 197.561C410.567 199.433 407.81 200.571 404.786 200.571C398.277 200.571 393 195.295 393 188.786C393 182.277 398.277 177 404.786 177C411.295 177 416.571 182.277 416.571 188.786C416.571 191.551 415.619 194.094 414.025 196.104L426.027 207.872C426.421 208.258 426.427 208.892 426.041 209.286C425.654 209.68 425.021 209.686 424.626 209.3L412.654 197.561Z" fill="black"/>
<line x1="233" y1="175" x2="233" y2="209" stroke="black" stroke-width="2" stroke-linecap="round"/>
<path d="M96 192C104 181.333 112 181.333 120 192C128 202.667 136 202.667 144 192C152 181.333 160 181.333 168 192C176 202.667 184 202.667 192 192C200 181.333 208 181.333 216 192" stroke="#606F7B" stroke-width="2" stroke-linecap="round"/>
<rect x="65" y="161" width="382" height="5" fill="#D7D7D7"/>
<rect x="65" y="166" width="5" height="57" fill="#D7D7D7"/>
</svg>
