<svg width="512" height="384" viewBox="0 0 512 384" fill="none" xmlns="http://www.w3.org/2000/svg">
<rect width="512" height="384" fill="white"/>
<rect x="70" y="135" width="384" height="191" fill="#C4C4C4" fill-opacity="0.68"/>
<rect x="64" y="64" width="384" height="64" fill="#DAE1E7" stroke="black" stroke-width="2"/>
<rect x="64" y="129" width="384" height="191" fill="#F1F5F8"/>
<rect x="64" y="192" width="384" height="64" fill="#DAE1E7"/>
<path d="M409.162 278.857H424.543H426.957L425.25 277.15L387.764 239.664L386.057 237.957V240.371V291.571V293.929L387.752 292.29L398.396 282.001L408.659 306.448L409.046 307.37L409.968 306.983L418.399 303.443L419.321 303.056L418.934 302.134L409.162 278.857Z" fill="white" stroke="black" stroke-width="2"/>
<path d="M416 88L400 104L384 88" stroke="black" stroke-width="2" stroke-linecap="round"/>
<path d="M96 224C104.111 212 112.222 212 120.333 224C128.444 236 136.556 236 144.667 224C152.778 212 160.889 212 169 224C177.111 236 185.222 236 193.333 224C201.444 212 209.556 212 217.667 224C225.778 236 233.889 236 242 224" stroke="#606F7B" stroke-width="2" stroke-linecap="round"/>
<path d="M96 160C104.067 148 112.133 148 120.2 160C128.267 172 136.333 172 144.4 160C152.467 148 160.533 148 168.6 160C176.667 172 184.733 172 192.8 160C200.867 148 208.933 148 217 160C225.067 172 233.133 172 241.2 160C249.267 148 257.333 148 265.4 160C273.467 172 281.533 172 289.6 160C297.667 148 305.733 148 313.8 160C321.867 172 329.933 172 338 160" stroke="#606F7B" stroke-width="2" stroke-linecap="round"/>
<path d="M96 96C104 85.3333 112 85.3333 120 96C128 106.667 136 106.667 144 96C152 85.3333 160 85.3333 168 96C176 106.667 184 106.667 192 96C200 85.3333 208 85.3333 216 96C224 106.667 232 106.667 240 96C248 85.3333 256 85.3333 264 96C272 106.667 280 106.667 288 96" stroke="#606F7B" stroke-width="2" stroke-linecap="round"/>
<path d="M96 288C104 277.333 112 277.333 120 288C128 298.667 136 298.667 144 288C152 277.333 160 277.333 168 288C176 298.667 184 298.667 192 288C200 277.333 208 277.333 216 288C224 298.667 232 298.667 240 288C248 277.333 256 277.333 264 288C272 298.667 280 298.667 288 288" stroke="#606F7B" stroke-width="2" stroke-linecap="round"/>
</svg>
