<svg width="512" height="384" viewBox="0 0 512 384" fill="none" xmlns="http://www.w3.org/2000/svg">
<rect width="512" height="384" fill="white"/>
<rect x="80" y="128" width="352" height="192" fill="#F1F5F8" stroke="black" stroke-width="2"/>
<line x1="272" y1="191" x2="272" y2="225" stroke="black" stroke-width="2" stroke-linecap="round"/>
<path d="M111 208C119.111 197.333 127.222 197.333 135.333 208C143.444 218.667 151.556 218.667 159.667 208C167.778 197.333 175.889 197.333 184 208C192.111 218.667 200.222 218.667 208.333 208C216.444 197.333 224.556 197.333 232.667 208C240.778 218.667 248.889 218.667 257 208" stroke="#606F7B" stroke-width="2" stroke-linecap="round"/>
<path d="M80 97C88 86.3333 96 86.3333 104 97C112 107.667 120 107.667 128 97C136 86.3333 144 86.3333 152 97C160 107.667 168 107.667 176 97C184 86.3333 192 86.3333 200 97" stroke="#606F7B" stroke-width="2" stroke-linecap="round"/>
<path d="M111 161C119.083 150.333 127.167 150.333 135.25 161C143.333 171.667 151.417 171.667 159.5 161C167.583 150.333 175.667 150.333 183.75 161C191.833 171.667 199.917 171.667 208 161C216.083 150.333 224.167 150.333 232.25 161C240.333 171.667 248.417 171.667 256.5 161C264.583 150.333 272.667 150.333 280.75 161C288.833 171.667 296.917 171.667 305 161" stroke="#606F7B" stroke-width="2" stroke-linecap="round" stroke-linejoin="round"/>
<path d="M329 161C337 150.333 345 150.333 353 161C361 171.667 369 171.667 377 161C385 150.333 393 150.333 401 161" stroke="#606F7B" stroke-width="2" stroke-linecap="round"/>
<rect x="81" y="134" width="5" height="185" fill="#D7D7D7"/>
<rect x="81" y="129" width="350" height="5" fill="#D7D7D7"/>
</svg>
