<svg width="512" height="384" viewBox="0 0 512 384" fill="none" xmlns="http://www.w3.org/2000/svg">
<rect width="512" height="384" fill="white"/>
<path d="M270.162 278.857H285.543H287.957L286.25 277.15L248.764 239.664L247.057 237.957V240.372V291.572V293.929L248.752 292.291L259.396 282.001L269.659 306.448L270.046 307.37L270.968 306.983L279.399 303.444L280.321 303.057L279.934 302.134L270.162 278.857Z" fill="white" stroke="black" stroke-width="2"/>
<path fill-rule="evenodd" clip-rule="evenodd" d="M141 135C131.059 135 123 143.059 123 153V187C123 196.941 131.059 205 141 205H233.009L261.991 233.983L290.974 205H384C393.941 205 402 196.941 402 187V153C402 143.059 393.941 135 384 135H141Z" fill="#C4C4C4" fill-opacity="0.68"/>
<mask id="path-3-inside-1_67_2" fill="white">
<path fill-rule="evenodd" clip-rule="evenodd" d="M135 129C125.059 129 117 137.059 117 147V181C117 190.941 125.059 199 135 199H227.009L255.991 227.983L284.974 199H378C387.941 199 396 190.941 396 181V147C396 137.059 387.941 129 378 129H135Z"/>
</mask>
<path fill-rule="evenodd" clip-rule="evenodd" d="M135 129C125.059 129 117 137.059 117 147V181C117 190.941 125.059 199 135 199H227.009L255.991 227.983L284.974 199H378C387.941 199 396 190.941 396 181V147C396 137.059 387.941 129 378 129H135Z" fill="white"/>
<path d="M227.009 199L228.423 197.586L227.837 197H227.009V199ZM255.991 227.983L254.577 229.397L255.991 230.811L257.406 229.397L255.991 227.983ZM284.974 199V197H284.146L283.56 197.586L284.974 199ZM119 147C119 138.163 126.163 131 135 131V127C123.954 127 115 135.954 115 147H119ZM119 181V147H115V181H119ZM135 197C126.163 197 119 189.837 119 181H115C115 192.046 123.954 201 135 201V197ZM227.009 197H135V201H227.009V197ZM257.406 226.569L228.423 197.586L225.594 200.414L254.577 229.397L257.406 226.569ZM283.56 197.586L254.577 226.569L257.406 229.397L286.388 200.414L283.56 197.586ZM378 197H284.974V201H378V197ZM394 181C394 189.837 386.837 197 378 197V201C389.046 201 398 192.046 398 181H394ZM394 147V181H398V147H394ZM378 131C386.837 131 394 138.163 394 147H398C398 135.954 389.046 127 378 127V131ZM135 131H378V127H135V131Z" fill="black" mask="url(#path-3-inside-1_67_2)"/>
<path d="M159 164C167.083 152 175.167 152 183.25 164C191.333 176 199.417 176 207.5 164C215.583 152 223.667 152 231.75 164C239.833 176 247.917 176 256 164C264.083 152 272.167 152 280.25 164C288.333 176 296.417 176 304.5 164C312.583 152 320.667 152 328.75 164C336.833 176 344.917 176 353 164" stroke="#606F7B" stroke-width="2" stroke-linecap="round"/>
</svg>
